<mxfile host="app.diagrams.net" agent="Mozilla/5.0 (Macintosh; Intel Mac OS X 10_15_7) AppleWebKit/537.36 (KHTML, like Gecko) Chrome/133.0.0.0 Safari/537.36" version="26.0.16">
  <diagram name="Page-1" id="MafnDJ-7xix2ASmtRGoa">
    <mxGraphModel grid="1" page="1" gridSize="10" guides="1" tooltips="1" connect="1" arrows="1" fold="1" pageScale="1" pageWidth="827" pageHeight="1169" math="0" shadow="0">
      <root>
        <mxCell id="0" />
        <mxCell id="1" parent="0" />
        <mxCell id="jTdIVBTPUZk9hlG6x69J-1" value="Genomic Order&amp;nbsp;" style="swimlane;html=1;childLayout=stackLayout;resizeParent=1;resizeParentMax=0;horizontal=1;startSize=20;horizontalStack=0;whiteSpace=wrap;" vertex="1" parent="1">
          <mxGeometry x="40" y="40" width="1400" height="640" as="geometry" />
        </mxCell>
        <mxCell id="jTdIVBTPUZk9hlG6x69J-2" value="Order Placer / Order Result&amp;nbsp; Tracker&amp;nbsp;" style="swimlane;html=1;startSize=20;horizontal=0;" vertex="1" parent="jTdIVBTPUZk9hlG6x69J-1">
          <mxGeometry y="20" width="1400" height="380" as="geometry" />
        </mxCell>
        <mxCell id="jTdIVBTPUZk9hlG6x69J-7" value="" style="edgeStyle=orthogonalEdgeStyle;rounded=0;orthogonalLoop=1;jettySize=auto;html=1;entryX=0;entryY=0.5;entryDx=0;entryDy=0;entryPerimeter=0;" edge="1" parent="jTdIVBTPUZk9hlG6x69J-2" source="jTdIVBTPUZk9hlG6x69J-5" target="jTdIVBTPUZk9hlG6x69J-8">
          <mxGeometry relative="1" as="geometry">
            <mxPoint x="155" y="160" as="targetPoint" />
          </mxGeometry>
        </mxCell>
        <mxCell id="jTdIVBTPUZk9hlG6x69J-5" value="" style="points=[[0.145,0.145,0],[0.5,0,0],[0.855,0.145,0],[1,0.5,0],[0.855,0.855,0],[0.5,1,0],[0.145,0.855,0],[0,0.5,0]];shape=mxgraph.bpmn.event;html=1;verticalLabelPosition=bottom;labelBackgroundColor=#ffffff;verticalAlign=top;align=center;perimeter=ellipsePerimeter;outlineConnect=0;aspect=fixed;outline=standard;symbol=general;" vertex="1" parent="jTdIVBTPUZk9hlG6x69J-2">
          <mxGeometry x="60" y="135" width="50" height="50" as="geometry" />
        </mxCell>
        <mxCell id="jTdIVBTPUZk9hlG6x69J-10" style="edgeStyle=orthogonalEdgeStyle;rounded=0;orthogonalLoop=1;jettySize=auto;html=1;" edge="1" parent="jTdIVBTPUZk9hlG6x69J-2" source="jTdIVBTPUZk9hlG6x69J-8" target="jTdIVBTPUZk9hlG6x69J-9">
          <mxGeometry relative="1" as="geometry" />
        </mxCell>
        <mxCell id="jTdIVBTPUZk9hlG6x69J-8" value="Select Order Form" style="points=[[0.25,0,0],[0.5,0,0],[0.75,0,0],[1,0.25,0],[1,0.5,0],[1,0.75,0],[0.75,1,0],[0.5,1,0],[0.25,1,0],[0,0.75,0],[0,0.5,0],[0,0.25,0]];shape=mxgraph.bpmn.task2;whiteSpace=wrap;rectStyle=rounded;size=10;html=1;container=1;expand=0;collapsible=0;taskMarker=user;" vertex="1" parent="jTdIVBTPUZk9hlG6x69J-2">
          <mxGeometry x="150" y="120" width="120" height="80" as="geometry" />
        </mxCell>
        <mxCell id="jTdIVBTPUZk9hlG6x69J-24" style="edgeStyle=orthogonalEdgeStyle;rounded=0;orthogonalLoop=1;jettySize=auto;html=1;" edge="1" parent="jTdIVBTPUZk9hlG6x69J-2" source="jTdIVBTPUZk9hlG6x69J-9" target="jTdIVBTPUZk9hlG6x69J-21">
          <mxGeometry relative="1" as="geometry" />
        </mxCell>
        <mxCell id="jTdIVBTPUZk9hlG6x69J-9" value="Complete&amp;nbsp; Order Form" style="points=[[0.25,0,0],[0.5,0,0],[0.75,0,0],[1,0.25,0],[1,0.5,0],[1,0.75,0],[0.75,1,0],[0.5,1,0],[0.25,1,0],[0,0.75,0],[0,0.5,0],[0,0.25,0]];shape=mxgraph.bpmn.task2;whiteSpace=wrap;rectStyle=rounded;size=10;html=1;container=1;expand=0;collapsible=0;taskMarker=user;" vertex="1" parent="jTdIVBTPUZk9hlG6x69J-2">
          <mxGeometry x="320" y="120" width="120" height="80" as="geometry" />
        </mxCell>
        <mxCell id="jTdIVBTPUZk9hlG6x69J-11" value="Submit Order" style="points=[[0.25,0,0],[0.5,0,0],[0.75,0,0],[1,0.25,0],[1,0.5,0],[1,0.75,0],[0.75,1,0],[0.5,1,0],[0.25,1,0],[0,0.75,0],[0,0.5,0],[0,0.25,0]];shape=mxgraph.bpmn.task2;whiteSpace=wrap;rectStyle=rounded;size=10;html=1;container=1;expand=0;collapsible=0;taskMarker=send;" vertex="1" parent="jTdIVBTPUZk9hlG6x69J-2">
          <mxGeometry x="320" y="240" width="120" height="80" as="geometry" />
        </mxCell>
        <mxCell id="jTdIVBTPUZk9hlG6x69J-13" style="edgeStyle=orthogonalEdgeStyle;rounded=0;orthogonalLoop=1;jettySize=auto;html=1;entryX=0.5;entryY=0;entryDx=0;entryDy=0;entryPerimeter=0;" edge="1" parent="jTdIVBTPUZk9hlG6x69J-2" source="jTdIVBTPUZk9hlG6x69J-9" target="jTdIVBTPUZk9hlG6x69J-11">
          <mxGeometry relative="1" as="geometry" />
        </mxCell>
        <mxCell id="jTdIVBTPUZk9hlG6x69J-16" value="Order" style="shape=mxgraph.bpmn.data2;labelPosition=center;verticalLabelPosition=bottom;align=center;verticalAlign=top;size=15;html=1;bpmnTransferType=output;" vertex="1" parent="jTdIVBTPUZk9hlG6x69J-2">
          <mxGeometry x="440" y="30" width="40" height="60" as="geometry" />
        </mxCell>
        <mxCell id="jTdIVBTPUZk9hlG6x69J-17" style="edgeStyle=orthogonalEdgeStyle;rounded=0;orthogonalLoop=1;jettySize=auto;html=1;entryX=0;entryY=0.5;entryDx=0;entryDy=0;entryPerimeter=0;" edge="1" parent="jTdIVBTPUZk9hlG6x69J-2" source="jTdIVBTPUZk9hlG6x69J-9" target="jTdIVBTPUZk9hlG6x69J-16">
          <mxGeometry relative="1" as="geometry" />
        </mxCell>
        <mxCell id="jTdIVBTPUZk9hlG6x69J-21" value="Collect Sample" style="points=[[0.25,0,0],[0.5,0,0],[0.75,0,0],[1,0.25,0],[1,0.5,0],[1,0.75,0],[0.75,1,0],[0.5,1,0],[0.25,1,0],[0,0.75,0],[0,0.5,0],[0,0.25,0]];shape=mxgraph.bpmn.task2;whiteSpace=wrap;rectStyle=rounded;size=10;html=1;container=1;expand=0;collapsible=0;taskMarker=user;" vertex="1" parent="jTdIVBTPUZk9hlG6x69J-2">
          <mxGeometry x="490" y="120" width="120" height="80" as="geometry" />
        </mxCell>
        <mxCell id="jTdIVBTPUZk9hlG6x69J-25" style="edgeStyle=orthogonalEdgeStyle;rounded=0;orthogonalLoop=1;jettySize=auto;html=1;entryX=0.975;entryY=0.517;entryDx=0;entryDy=0;entryPerimeter=0;" edge="1" parent="jTdIVBTPUZk9hlG6x69J-2" source="jTdIVBTPUZk9hlG6x69J-21" target="jTdIVBTPUZk9hlG6x69J-16">
          <mxGeometry relative="1" as="geometry">
            <Array as="points">
              <mxPoint x="550" y="61" />
            </Array>
          </mxGeometry>
        </mxCell>
        <mxCell id="jTdIVBTPUZk9hlG6x69J-26" value="Update Order" style="points=[[0.25,0,0],[0.5,0,0],[0.75,0,0],[1,0.25,0],[1,0.5,0],[1,0.75,0],[0.75,1,0],[0.5,1,0],[0.25,1,0],[0,0.75,0],[0,0.5,0],[0,0.25,0]];shape=mxgraph.bpmn.task2;whiteSpace=wrap;rectStyle=rounded;size=10;html=1;container=1;expand=0;collapsible=0;taskMarker=send;dashed=1;" vertex="1" parent="jTdIVBTPUZk9hlG6x69J-2">
          <mxGeometry x="490" y="240" width="120" height="80" as="geometry" />
        </mxCell>
        <mxCell id="jTdIVBTPUZk9hlG6x69J-29" style="edgeStyle=orthogonalEdgeStyle;rounded=0;orthogonalLoop=1;jettySize=auto;html=1;entryX=0.5;entryY=0;entryDx=0;entryDy=0;entryPerimeter=0;" edge="1" parent="jTdIVBTPUZk9hlG6x69J-2" source="jTdIVBTPUZk9hlG6x69J-21" target="jTdIVBTPUZk9hlG6x69J-26">
          <mxGeometry relative="1" as="geometry" />
        </mxCell>
        <mxCell id="jTdIVBTPUZk9hlG6x69J-30" value="Send Sample&lt;br&gt;(postal service)" style="points=[[0.25,0,0],[0.5,0,0],[0.75,0,0],[1,0.25,0],[1,0.5,0],[1,0.75,0],[0.75,1,0],[0.5,1,0],[0.25,1,0],[0,0.75,0],[0,0.5,0],[0,0.25,0]];shape=mxgraph.bpmn.task2;whiteSpace=wrap;rectStyle=rounded;size=10;html=1;container=1;expand=0;collapsible=0;taskMarker=send;" vertex="1" parent="jTdIVBTPUZk9hlG6x69J-2">
          <mxGeometry x="660" y="120" width="120" height="80" as="geometry" />
        </mxCell>
        <mxCell id="jTdIVBTPUZk9hlG6x69J-31" style="edgeStyle=orthogonalEdgeStyle;rounded=0;orthogonalLoop=1;jettySize=auto;html=1;entryX=0;entryY=0.5;entryDx=0;entryDy=0;entryPerimeter=0;" edge="1" parent="jTdIVBTPUZk9hlG6x69J-2" source="jTdIVBTPUZk9hlG6x69J-21" target="jTdIVBTPUZk9hlG6x69J-30">
          <mxGeometry relative="1" as="geometry" />
        </mxCell>
        <mxCell id="jTdIVBTPUZk9hlG6x69J-35" value="Receive Report" style="points=[[0.25,0,0],[0.5,0,0],[0.75,0,0],[1,0.25,0],[1,0.5,0],[1,0.75,0],[0.75,1,0],[0.5,1,0],[0.25,1,0],[0,0.75,0],[0,0.5,0],[0,0.25,0]];shape=mxgraph.bpmn.task2;whiteSpace=wrap;rectStyle=rounded;size=10;html=1;container=1;expand=0;collapsible=0;taskMarker=receive;" vertex="1" parent="jTdIVBTPUZk9hlG6x69J-2">
          <mxGeometry x="1160" y="120" width="120" height="80" as="geometry" />
        </mxCell>
        <mxCell id="jTdIVBTPUZk9hlG6x69J-38" value="" style="points=[[0.145,0.145,0],[0.5,0,0],[0.855,0.145,0],[1,0.5,0],[0.855,0.855,0],[0.5,1,0],[0.145,0.855,0],[0,0.5,0]];shape=mxgraph.bpmn.event;html=1;verticalLabelPosition=bottom;labelBackgroundColor=#ffffff;verticalAlign=top;align=center;perimeter=ellipsePerimeter;outlineConnect=0;aspect=fixed;outline=end;symbol=terminate;" vertex="1" parent="jTdIVBTPUZk9hlG6x69J-2">
          <mxGeometry x="1320" y="135" width="50" height="50" as="geometry" />
        </mxCell>
        <mxCell id="jTdIVBTPUZk9hlG6x69J-39" style="edgeStyle=orthogonalEdgeStyle;rounded=0;orthogonalLoop=1;jettySize=auto;html=1;" edge="1" parent="jTdIVBTPUZk9hlG6x69J-2" source="jTdIVBTPUZk9hlG6x69J-35" target="jTdIVBTPUZk9hlG6x69J-38">
          <mxGeometry relative="1" as="geometry" />
        </mxCell>
        <mxCell id="jTdIVBTPUZk9hlG6x69J-4" value="Order Filler" style="swimlane;html=1;startSize=20;horizontal=0;" vertex="1" parent="jTdIVBTPUZk9hlG6x69J-1">
          <mxGeometry y="400" width="1400" height="240" as="geometry" />
        </mxCell>
        <mxCell id="jTdIVBTPUZk9hlG6x69J-14" value="Receive Order" style="points=[[0.25,0,0],[0.5,0,0],[0.75,0,0],[1,0.25,0],[1,0.5,0],[1,0.75,0],[0.75,1,0],[0.5,1,0],[0.25,1,0],[0,0.75,0],[0,0.5,0],[0,0.25,0]];shape=mxgraph.bpmn.task2;whiteSpace=wrap;rectStyle=rounded;size=10;html=1;container=1;expand=0;collapsible=0;taskMarker=receive;" vertex="1" parent="jTdIVBTPUZk9hlG6x69J-4">
          <mxGeometry x="320" y="30" width="120" height="80" as="geometry" />
        </mxCell>
        <mxCell id="jTdIVBTPUZk9hlG6x69J-23" style="edgeStyle=orthogonalEdgeStyle;rounded=0;orthogonalLoop=1;jettySize=auto;html=1;entryX=0;entryY=0.5;entryDx=0;entryDy=0;entryPerimeter=0;" edge="1" parent="jTdIVBTPUZk9hlG6x69J-4" source="jTdIVBTPUZk9hlG6x69J-43" target="jTdIVBTPUZk9hlG6x69J-18">
          <mxGeometry relative="1" as="geometry" />
        </mxCell>
        <mxCell id="jTdIVBTPUZk9hlG6x69J-18" value="Perform Tests" style="points=[[0.25,0,0],[0.5,0,0],[0.75,0,0],[1,0.25,0],[1,0.5,0],[1,0.75,0],[0.75,1,0],[0.5,1,0],[0.25,1,0],[0,0.75,0],[0,0.5,0],[0,0.25,0]];shape=mxgraph.bpmn.task2;whiteSpace=wrap;rectStyle=rounded;size=10;html=1;container=1;expand=0;collapsible=0;taskMarker=user;" vertex="1" parent="jTdIVBTPUZk9hlG6x69J-4">
          <mxGeometry x="830" y="30" width="120" height="80" as="geometry" />
        </mxCell>
        <mxCell id="jTdIVBTPUZk9hlG6x69J-32" value="Write Report" style="points=[[0.25,0,0],[0.5,0,0],[0.75,0,0],[1,0.25,0],[1,0.5,0],[1,0.75,0],[0.75,1,0],[0.5,1,0],[0.25,1,0],[0,0.75,0],[0,0.5,0],[0,0.25,0]];shape=mxgraph.bpmn.task2;whiteSpace=wrap;rectStyle=rounded;size=10;html=1;container=1;expand=0;collapsible=0;taskMarker=user;" vertex="1" parent="jTdIVBTPUZk9hlG6x69J-4">
          <mxGeometry x="990" y="30" width="120" height="80" as="geometry" />
        </mxCell>
        <mxCell id="jTdIVBTPUZk9hlG6x69J-33" style="edgeStyle=orthogonalEdgeStyle;rounded=0;orthogonalLoop=1;jettySize=auto;html=1;entryX=0;entryY=0.5;entryDx=0;entryDy=0;entryPerimeter=0;" edge="1" parent="jTdIVBTPUZk9hlG6x69J-4" source="jTdIVBTPUZk9hlG6x69J-18" target="jTdIVBTPUZk9hlG6x69J-32">
          <mxGeometry relative="1" as="geometry" />
        </mxCell>
        <mxCell id="jTdIVBTPUZk9hlG6x69J-34" value="Send Report" style="points=[[0.25,0,0],[0.5,0,0],[0.75,0,0],[1,0.25,0],[1,0.5,0],[1,0.75,0],[0.75,1,0],[0.5,1,0],[0.25,1,0],[0,0.75,0],[0,0.5,0],[0,0.25,0]];shape=mxgraph.bpmn.task2;whiteSpace=wrap;rectStyle=rounded;size=10;html=1;container=1;expand=0;collapsible=0;taskMarker=send;" vertex="1" parent="jTdIVBTPUZk9hlG6x69J-4">
          <mxGeometry x="1160" y="30" width="120" height="80" as="geometry" />
        </mxCell>
        <mxCell id="jTdIVBTPUZk9hlG6x69J-37" style="edgeStyle=orthogonalEdgeStyle;rounded=0;orthogonalLoop=1;jettySize=auto;html=1;entryX=0;entryY=0.5;entryDx=0;entryDy=0;entryPerimeter=0;" edge="1" parent="jTdIVBTPUZk9hlG6x69J-4" source="jTdIVBTPUZk9hlG6x69J-32" target="jTdIVBTPUZk9hlG6x69J-34">
          <mxGeometry relative="1" as="geometry" />
        </mxCell>
        <mxCell id="jTdIVBTPUZk9hlG6x69J-41" value="Report" style="shape=mxgraph.bpmn.data2;labelPosition=center;verticalLabelPosition=bottom;align=center;verticalAlign=top;size=15;html=1;bpmnTransferType=output;" vertex="1" parent="jTdIVBTPUZk9hlG6x69J-4">
          <mxGeometry x="1120" y="145" width="40" height="60" as="geometry" />
        </mxCell>
        <mxCell id="jTdIVBTPUZk9hlG6x69J-42" style="edgeStyle=orthogonalEdgeStyle;rounded=0;orthogonalLoop=1;jettySize=auto;html=1;entryX=0;entryY=0.5;entryDx=0;entryDy=0;entryPerimeter=0;" edge="1" parent="jTdIVBTPUZk9hlG6x69J-4" source="jTdIVBTPUZk9hlG6x69J-32" target="jTdIVBTPUZk9hlG6x69J-41">
          <mxGeometry relative="1" as="geometry">
            <Array as="points">
              <mxPoint x="1050" y="175" />
            </Array>
          </mxGeometry>
        </mxCell>
        <mxCell id="jTdIVBTPUZk9hlG6x69J-43" value="Receive&amp;nbsp; Sample&lt;br&gt;(postal service)" style="points=[[0.25,0,0],[0.5,0,0],[0.75,0,0],[1,0.25,0],[1,0.5,0],[1,0.75,0],[0.75,1,0],[0.5,1,0],[0.25,1,0],[0,0.75,0],[0,0.5,0],[0,0.25,0]];shape=mxgraph.bpmn.task2;whiteSpace=wrap;rectStyle=rounded;size=10;html=1;container=1;expand=0;collapsible=0;taskMarker=user;bpmnShapeType=task;" vertex="1" parent="jTdIVBTPUZk9hlG6x69J-4">
          <mxGeometry x="660" y="30" width="120" height="80" as="geometry" />
        </mxCell>
        <mxCell id="jTdIVBTPUZk9hlG6x69J-15" style="edgeStyle=orthogonalEdgeStyle;rounded=0;orthogonalLoop=1;jettySize=auto;html=1;" edge="1" parent="jTdIVBTPUZk9hlG6x69J-1" source="jTdIVBTPUZk9hlG6x69J-11" target="jTdIVBTPUZk9hlG6x69J-14">
          <mxGeometry relative="1" as="geometry" />
        </mxCell>
        <mxCell id="jTdIVBTPUZk9hlG6x69J-20" value="IHE LAB-1&lt;br&gt;HL7 Laboratory Order O21" style="edgeLabel;html=1;align=center;verticalAlign=middle;resizable=0;points=[];" connectable="0" vertex="1" parent="jTdIVBTPUZk9hlG6x69J-15">
          <mxGeometry x="-0.1778" relative="1" as="geometry">
            <mxPoint as="offset" />
          </mxGeometry>
        </mxCell>
        <mxCell id="jTdIVBTPUZk9hlG6x69J-36" style="edgeStyle=orthogonalEdgeStyle;rounded=0;orthogonalLoop=1;jettySize=auto;html=1;" edge="1" parent="jTdIVBTPUZk9hlG6x69J-1" source="jTdIVBTPUZk9hlG6x69J-34" target="jTdIVBTPUZk9hlG6x69J-35">
          <mxGeometry relative="1" as="geometry" />
        </mxCell>
        <mxCell id="jTdIVBTPUZk9hlG6x69J-40" value="IHE LAB-3&lt;br&gt;HL7 Laboratory Report R01" style="edgeLabel;html=1;align=center;verticalAlign=middle;resizable=0;points=[];" connectable="0" vertex="1" parent="jTdIVBTPUZk9hlG6x69J-36">
          <mxGeometry x="0.0381" y="1" relative="1" as="geometry">
            <mxPoint as="offset" />
          </mxGeometry>
        </mxCell>
        <mxCell id="jTdIVBTPUZk9hlG6x69J-45" style="edgeStyle=orthogonalEdgeStyle;rounded=0;orthogonalLoop=1;jettySize=auto;html=1;" edge="1" parent="jTdIVBTPUZk9hlG6x69J-1" source="jTdIVBTPUZk9hlG6x69J-30" target="jTdIVBTPUZk9hlG6x69J-43">
          <mxGeometry relative="1" as="geometry" />
        </mxCell>
      </root>
    </mxGraphModel>
  </diagram>
</mxfile>
